<svg xmlns="http://www.w3.org/2000/svg" width="24" height="24" viewBox="0 0 24 24" fill="none">
  <path d="M12.2662 1.50432L12.2662 1.50432C16.82 1.6552 20.1564 5.85254 19.3901 10.268L19.3901 10.2681C19.0173 12.4173 17.8218 14.2652 16.3516 16.2106C16.0522 16.6068 15.7409 17.0074 15.4243 17.415C14.2487 18.9283 12.9988 20.5371 12.0061 22.3668C11.0058 20.5105 9.73812 18.8346 8.5473 17.2603C8.08254 16.6459 7.62949 16.047 7.20864 15.4589C5.64475 13.2735 4.5 11.2133 4.5 8.86457C4.5 4.72148 7.99264 1.36265 12.2662 1.50432Z" stroke="#48684B"/>
  <path d="M15.5778 9.00971C15.6246 10.9379 14.1008 12.5001 12.1755 12.5001C10.2502 12.5001 8.65053 10.9379 8.60372 9.00971C8.55691 7.08148 10.0807 5.51928 12.006 5.51928C13.9313 5.51928 15.531 7.08148 15.5778 9.00971Z" stroke="#48684B"/>
</svg>