<svg width="66" height="70" viewBox="0 0 66 70" fill="none" xmlns="http://www.w3.org/2000/svg">
<g id="Layer_1">
<path id="Vector" d="M64.6668 67V67.5H65.1668V67H64.6668ZM8.18197 67C8.18197 68.4728 9.37587 69.6667 10.8486 69.6667C12.3214 69.6667 13.5153 68.4728 13.5153 67C13.5153 65.5272 12.3214 64.3333 10.8486 64.3333C9.37587 64.3333 8.18197 65.5272 8.18197 67ZM64.1668 3V67H65.1668V3H64.1668ZM64.6668 66.5H10.8486V67.5H64.6668V66.5Z" fill="#8EBC43"/>
<path id="Vector_2" d="M0.666748 3V2.5H0.166748V3H0.666748ZM51.8183 3C51.8183 4.47276 53.0122 5.66667 54.4849 5.66667C55.9577 5.66667 57.1516 4.47276 57.1516 3C57.1516 1.52724 55.9577 0.333333 54.4849 0.333333C53.0122 0.333333 51.8183 1.52724 51.8183 3ZM1.16675 67V3H0.166748V67H1.16675ZM0.666748 3.5H54.4849V2.5H0.666748V3.5Z" fill="#8EBC43"/>
</g>
</svg>
