<svg width="68" height="66" viewBox="0 0 68 66" fill="none" xmlns="http://www.w3.org/2000/svg">
<g id="Layer_1">
<path id="Vector" d="M62.6666 22.3179C62.6666 23.7906 63.8605 24.9845 65.3332 24.9845C66.806 24.9845 67.9999 23.7906 67.9999 22.3179C67.9999 20.8451 66.806 19.6512 65.3332 19.6512C63.8605 19.6512 62.6666 20.8451 62.6666 22.3179ZM65.3332 49.0016L65.5568 49.4488L65.8333 49.3107V49.0016H65.3332ZM33.3294 64.9999L33.1058 65.4472L33.3294 65.5589L33.553 65.4472L33.3294 64.9999ZM1.33325 49.0016H0.833252V49.3106L1.10964 49.4488L1.33325 49.0016ZM1.33325 16.9983L1.55685 16.5511L0.833252 16.1893V16.9983H1.33325ZM28.5545 30.6082L28.7785 30.1612L28.7781 30.1609L28.5545 30.6082ZM38.112 30.6082L37.8885 30.1609L37.888 30.1612L38.112 30.6082ZM65.3332 16.9983L65.5568 17.4455L66.4513 16.9983L65.5569 16.5511L65.3332 16.9983ZM33.3371 1L33.5607 0.552788L33.3371 0.440993L33.1135 0.55277L33.3371 1ZM4.41184 14.1268C4.41184 15.5996 5.60575 16.7935 7.07851 16.7935C8.55127 16.7935 9.74517 15.5996 9.74517 14.1268C9.74517 12.6541 8.55127 11.4602 7.07851 11.4602C5.60575 11.4602 4.41184 12.6541 4.41184 14.1268ZM64.8332 22.3179V49.0016H65.8333V22.3179H64.8332ZM65.1097 48.5544L33.1059 64.5527L33.553 65.4472L65.5568 49.4488L65.1097 48.5544ZM33.553 64.5527L1.55686 48.5544L1.10964 49.4488L33.1058 65.4472L33.553 64.5527ZM1.83325 49.0016V16.9983H0.833252V49.0016H1.83325ZM1.10966 17.4455L28.3309 31.0554L28.7781 30.1609L1.55685 16.5511L1.10966 17.4455ZM28.3304 31.0551C31.4281 32.6079 35.2384 32.6079 38.3361 31.0551L37.888 30.1612C35.0723 31.5726 31.5942 31.5726 28.7785 30.1612L28.3304 31.0551ZM38.3356 31.0554L65.5568 17.4455L65.1097 16.5511L37.8885 30.1609L38.3356 31.0554ZM65.5569 16.5511L33.5607 0.552788L33.1135 1.44721L65.1096 17.4455L65.5569 16.5511ZM33.1135 0.55277L6.85493 13.6796L7.30208 14.5741L33.5606 1.44723L33.1135 0.55277Z" fill="#48684B"/>
<path id="Vector_2" d="M28.5545 35.3918L28.7781 35.839L28.7785 35.8388L28.5545 35.3918ZM38.112 35.3918L37.888 35.8388L37.8884 35.839L38.112 35.3918ZM55.4086 45.3759C55.4086 46.8487 56.6025 48.0426 58.0753 48.0426C59.548 48.0426 60.7419 46.8487 60.7419 45.3759C60.7419 43.9031 59.548 42.7092 58.0753 42.7092C56.6025 42.7092 55.4086 43.9031 55.4086 45.3759ZM1.55685 49.4489L28.7781 35.839L28.3309 34.9446L1.10966 48.5544L1.55685 49.4489ZM28.7785 35.8388C31.5942 34.4274 35.0723 34.4274 37.888 35.8388L38.3361 34.9448C35.2384 33.3921 31.4281 33.3921 28.3304 34.9448L28.7785 35.8388ZM37.8884 35.839L57.8516 45.8231L58.2989 44.9287L38.3357 34.9446L37.8884 35.839Z" fill="#8EBC43"/>
<path id="Vector_3" d="M33.3369 65V31.7065" stroke="#48684B" stroke-miterlimit="10"/>
<path id="Vector_4" d="M33.3369 1V29.0467" stroke="#8EBC43" stroke-miterlimit="10"/>
</g>
</svg>
