<svg width="66" height="70" viewBox="0 0 66 70" fill="none" xmlns="http://www.w3.org/2000/svg">
<g id="Layer_1">
<path id="Vector" d="M32.9999 67L32.6464 67.3536L32.9999 67.7071L33.3535 67.3536L32.9999 67ZM4.20521 38.2053C3.16382 39.2467 3.16382 40.9352 4.20521 41.9765C5.24661 43.0179 6.93505 43.0179 7.97645 41.9765C9.01785 40.9352 9.01785 39.2467 7.97645 38.2053C6.93505 37.1639 5.24661 37.1639 4.20521 38.2053ZM64.6463 34.6465L32.6464 66.6465L33.3535 67.3536L65.3535 35.3536L64.6463 34.6465ZM33.3535 66.6465L6.44439 39.7374L5.73728 40.4445L32.6464 67.3536L33.3535 66.6465Z" fill="#E2E2E2"/>
<path id="Vector_2" d="M33 3L33.3536 2.64645L33 2.29289L32.6464 2.64645L33 3ZM58.0235 28.0235C56.9821 29.0649 56.9821 30.7533 58.0235 31.7947C59.0649 32.8361 60.7533 32.8361 61.7947 31.7947C62.8361 30.7533 62.8361 29.0649 61.7947 28.0235C60.7533 26.9821 59.0649 26.9821 58.0235 28.0235ZM1.35357 35.3535L33.3536 3.35355L32.6464 2.64645L0.646459 34.6464L1.35357 35.3535ZM32.6464 3.35355L59.5555 30.2626L60.2626 29.5555L33.3536 2.64645L32.6464 3.35355Z" fill="#E2E2E2"/>
<path id="Vector_3" d="M64.9998 67V67.5H65.4998V67H64.9998ZM8.51497 67C8.51497 68.4728 9.70888 69.6667 11.1816 69.6667C12.6544 69.6667 13.8483 68.4728 13.8483 67C13.8483 65.5272 12.6544 64.3333 11.1816 64.3333C9.70888 64.3333 8.51497 65.5272 8.51497 67ZM64.4998 3V67H65.4998V3H64.4998ZM64.9998 66.5H11.1816V67.5H64.9998V66.5Z" fill="#8EBC43"/>
<path id="Vector_4" d="M0.999756 3V2.5H0.499756V3H0.999756ZM52.1513 3C52.1513 4.47276 53.3452 5.66667 54.8179 5.66667C56.2907 5.66667 57.4846 4.47276 57.4846 3C57.4846 1.52724 56.2907 0.333333 54.8179 0.333333C53.3452 0.333333 52.1513 1.52724 52.1513 3ZM1.49976 67V3H0.499756V67H1.49976ZM0.999756 3.5H54.8179V2.5H0.999756V3.5Z" fill="#8EBC43"/>
</g>
</svg>
