<svg width="24" height="24" viewBox="0 0 24 24" fill="none" xmlns="http://www.w3.org/2000/svg">
    <g id="Icon/Salary">
    <path id="Vector" d="M19.1121 8.71375L21.7463 10.3534V20.7716H2.25293V10.3534L4.88717 8.71375" stroke="#48684B" stroke-miterlimit="10" stroke-linecap="round" stroke-linejoin="round"/>
    <path id="Vector_2" d="M21.7463 12.185L11.9996 17.8257L2.25293 12.185" stroke="#48684B" stroke-miterlimit="10" stroke-linecap="round" stroke-linejoin="round"/>
    <path id="Vector_3" d="M4.8877 13.7105V3.22839H19.1126V13.7105" stroke="#48684B" stroke-miterlimit="10" stroke-linecap="round" stroke-linejoin="round"/>
    <path id="Vector_4" d="M10.0146 11.3445C10.0146 12.1804 10.8657 12.8563 11.9093 12.8563C12.9528 12.8563 13.8039 12.1804 13.8039 11.3445C13.8039 10.5087 12.9528 9.83274 11.9093 9.83274C10.8657 9.83274 10.0146 9.15677 10.0146 8.32094C10.0146 7.48511 10.8657 6.80914 11.9093 6.80914C12.9528 6.80914 13.8039 7.48511 13.8039 8.32094" stroke="#48684B" stroke-miterlimit="10" stroke-linecap="round" stroke-linejoin="round"/>
    <path id="Vector_5" d="M11.9092 6.80461V5.57599" stroke="#48684B" stroke-miterlimit="10" stroke-linecap="round" stroke-linejoin="round"/>
    <path id="Vector_6" d="M11.9092 14.085V12.8564" stroke="#48684B" stroke-miterlimit="10" stroke-linecap="round" stroke-linejoin="round"/>
    </g>
</svg>
