<svg xmlns="http://www.w3.org/2000/svg" width="79" height="41" viewBox="0 0 79 41" fill="none">
  <g clip-path="url(#clip0_175_1298)">
    <path d="M79 30.2123C79 33.193 77.7679 35.8923 75.7888 37.8428C73.8097 39.7934 71.069 41 68.0372 41H23.8271C23.5021 41 23.1771 40.9857 22.8569 40.9523C22.8666 40.9666 22.8715 40.9857 22.8909 41H10.2594C4.5937 41 0 36.4837 0 30.9133C0 25.343 4.25414 21.1701 9.62397 20.8505C9.55121 20.3736 9.5221 19.8919 9.5221 19.4007C9.5221 13.4346 14.4408 8.58916 20.5189 8.58916C21.3435 8.58916 22.1536 8.68454 22.9297 8.85623C27.5816 3.43852 34.5376 0 42.3135 0C54.4065 0 64.5204 8.30778 67.067 19.4293H68.0372C74.091 19.4293 79.0048 24.2557 79.0048 30.2123H79Z" fill="#8EBC43"/>
    <path d="M50.6606 21.758L42.5452 11.0242C42.0054 10.3147 40.9379 10.3147 40.4041 11.0242L32.2888 21.758C31.6216 22.6434 32.2524 23.9109 33.3623 23.9109H36.7771V33.4743C36.7771 34.2141 37.3776 34.8145 38.1175 34.8145H44.8318C45.5718 34.8145 46.1722 34.2141 46.1722 33.4743V23.9109H49.587C50.697 23.9109 51.3278 22.6434 50.6606 21.758Z" fill="white"/>
  </g>
  <defs>
    <clipPath id="clip0_175_1298">
      <rect width="79" height="41" fill="white"/>
    </clipPath>
  </defs>
</svg>