<svg xmlns="http://www.w3.org/2000/svg" width="24" height="24" viewBox="0 0 24 24" fill="none">
  <g clip-path="url(#clip0_847_1044)">
    <path d="M12 24C18.6274 24 24 18.6274 24 12C24 5.37258 18.6274 0 12 0C5.37258 0 0 5.37258 0 12C0 18.6274 5.37258 24 12 24Z" fill="white"/>
    <path d="M13.3299 19.6401V12.9501H15.5599L15.9799 10.1801H13.3299V8.38009C13.3299 7.62009 13.6999 6.89009 14.8899 6.89009H16.0999V4.53009C16.0999 4.53009 14.9999 4.34009 13.9599 4.34009C11.7699 4.34009 10.3499 5.66009 10.3499 8.06009V10.1701H7.91992V12.9401H10.3499V19.6301H13.3399L13.3299 19.6401Z" fill="#0074FB"/>
  </g>
  <defs>
    <clipPath id="clip0_847_1044">
      <rect width="24" height="24" fill="white"/>
    </clipPath>
  </defs>
</svg>