<svg xmlns="http://www.w3.org/2000/svg" width="24" height="24" viewBox="0 0 24 24" fill="none">
  <g clip-path="url(#clip0_847_1047)">
    <path d="M12 24C18.6274 24 24 18.6274 24 12C24 5.37258 18.6274 0 12 0C5.37258 0 0 5.37258 0 12C0 18.6274 5.37258 24 12 24Z" fill="white"/>
    <path d="M17.8299 10.4799C17.8299 9.06992 16.6799 7.91992 15.2699 7.91992H8.72992C7.31992 7.91992 6.16992 9.06992 6.16992 10.4799V13.5199C6.16992 14.9299 7.31992 16.0799 8.72992 16.0799H15.2699C16.6799 16.0799 17.8299 14.9299 17.8299 13.5199V10.4799ZM13.9799 12.2299L11.0499 13.6799C10.9399 13.7399 10.5399 13.6599 10.5399 13.5299V10.5499C10.5399 10.4199 10.9299 10.3299 11.0499 10.3999L13.8599 11.9299C13.9799 11.9999 14.0999 12.1699 13.9799 12.2299Z" fill="#FF4343"/>
  </g>
  <defs>
    <clipPath id="clip0_847_1047">
      <rect width="24" height="24" fill="white"/>
    </clipPath>
  </defs>
</svg>