<svg xmlns="http://www.w3.org/2000/svg" width="24" height="24" viewBox="0 0 24 24" fill="none">
  <g clip-path="url(#clip0_847_1095)">
    <path d="M3.52984 0.0751953H20.4655C22.3185 0.0751953 23.8207 1.64004 23.8207 3.57028V19.8613C23.8207 21.7916 22.3185 23.3564 20.4655 23.3564H3.52984C1.67681 23.3564 0.174561 21.7916 0.174561 19.8613V3.57028C0.174561 1.64004 1.67681 0.0751953 3.52984 0.0751953Z" fill="white" stroke="#0180C7" stroke-width="0.126043" stroke-miterlimit="54.3289"/>
    <path d="M4.38735 20.5014C4.29492 20.4585 4.22699 20.4098 4.33612 20.3135C4.40294 20.2601 4.47532 20.2114 4.54771 20.1627C5.22366 19.7056 5.85842 19.2057 6.27713 18.4691C6.62791 17.8566 6.57112 17.4958 6.13236 17.0446C3.68467 14.4949 2.61116 11.4464 3.14791 7.84464C3.45193 5.81232 4.34503 4.05376 5.64572 2.5272C6.43081 1.60268 7.364 0.854475 8.38629 0.231555C8.44865 0.194435 8.53551 0.182835 8.54665 0.0865552C8.52549 0.0331952 8.48985 0.0494353 8.45867 0.0494353C6.71923 0.0494353 4.97979 0.0123154 3.24591 0.0598754C1.58331 0.113235 0.148989 1.45188 0.154557 3.37168C0.16458 8.97912 0.154557 14.5877 0.154557 20.201C0.154557 21.9433 1.42963 23.4002 3.09669 23.4652C4.50539 23.5244 5.91521 23.4756 7.32948 23.471C7.43305 23.4768 7.5355 23.4814 7.63906 23.4814H15.0924C16.951 23.4814 18.8085 23.4919 20.6671 23.4814C22.3909 23.4814 23.7896 22.0303 23.7896 20.2392V20.2068V17.0608C23.7896 16.9854 23.8152 16.9054 23.7684 16.8242C23.676 16.83 23.6393 16.91 23.588 16.9646C22.5869 18.0132 21.4043 18.8577 20.1092 19.4539C16.9343 20.9109 13.7037 21.013 10.4264 19.8414C10.1424 19.7335 9.83285 19.723 9.53886 19.7984C9.10567 19.911 8.67694 20.0455 8.2482 20.1801C6.98872 20.5872 5.70251 20.7694 4.38735 20.5014ZM8.12905 11.4406C8.21702 11.3223 8.26379 11.2527 8.31502 11.1831C8.99097 10.2911 9.66693 9.39788 10.344 8.50004C10.54 8.24252 10.736 7.97804 10.8607 7.66716C11.0055 7.3122 10.8507 6.97928 10.4999 6.84936C10.3451 6.80064 10.1803 6.77976 10.0144 6.7902C9.09565 6.7844 8.17136 6.7844 7.25264 6.7902C7.12347 6.7902 6.99429 6.80644 6.87068 6.83892C6.58114 6.91432 6.40631 7.22056 6.47869 7.5268C6.52992 7.73096 6.68471 7.8922 6.88181 7.94092C7.00542 7.9734 7.1346 7.98964 7.26378 7.98384C7.82169 7.98964 8.38406 7.98384 8.94086 7.98964C9.00322 7.98964 9.08006 7.94672 9.12683 8.043C9.08006 8.10795 9.0344 8.17176 8.98763 8.23092C8.18807 9.2842 7.39296 10.3444 6.59228 11.3977C6.39629 11.661 6.29272 11.951 6.43749 12.2747C6.58226 12.5983 6.87625 12.6563 7.1758 12.6784C7.413 12.6946 7.65577 12.6842 7.89853 12.6842C8.73485 12.6842 9.56559 12.69 10.4019 12.6784C10.8462 12.6726 11.0834 12.393 11.0367 11.9638C11.001 11.6251 10.7783 11.4476 10.3652 11.4418C9.63575 11.436 8.90857 11.4406 8.12905 11.4406ZM14.1169 8.61256C13.4721 8.02676 12.7594 7.98848 12.0623 8.41884C11.2159 8.93504 10.9064 9.77952 11.0088 10.7574C11.1068 11.6715 11.4888 12.4185 12.4075 12.7248C12.9799 12.9185 13.5122 12.8489 13.9821 12.451C14.1057 12.3489 14.1425 12.3698 14.2293 12.4835C14.3997 12.7097 14.6937 12.7955 14.9521 12.6934C15.2104 12.6122 15.3808 12.3652 15.3808 12.0856C15.3864 11.0103 15.3908 9.93496 15.3808 8.85964C15.3752 8.42928 14.9888 8.15552 14.5857 8.24136C14.3641 8.29008 14.2405 8.44668 14.1169 8.61256ZM17.6938 10.6078C17.6726 11.9522 18.7417 12.9684 20.0835 12.828C21.3174 12.6992 22.117 11.7364 22.0758 10.3758C22.0346 9.03132 21.0746 8.1126 19.7584 8.15552C18.5245 8.1938 17.6526 9.2262 17.6938 10.6078ZM17.2394 9.53824C17.2394 8.69376 17.245 7.85508 17.2394 7.0106C17.2394 6.58024 16.9766 6.31112 16.5835 6.31692C16.2015 6.32272 15.9487 6.59068 15.9432 7.0048C15.9376 7.25768 15.9432 7.50476 15.9432 7.75764V12.0322C15.9432 12.3652 16.1392 12.6563 16.3975 12.7259C16.7539 12.828 17.1203 12.6076 17.2127 12.2364C17.2283 12.1714 17.2383 12.1076 17.2338 12.038C17.245 11.204 17.2394 10.3711 17.2394 9.53824Z" fill="#FDFEFE"/>
    <path d="M7.32409 23.4744C5.91539 23.4744 4.50112 23.5232 3.0913 23.4686C1.42424 23.399 0.14917 21.9421 0.14917 20.2044C0.14917 14.5969 0.159192 8.98835 0.14917 3.37511C0.14917 1.45531 1.58905 0.116669 3.24609 0.0679489C4.97997 0.0192289 6.71941 0.0575087 8.45885 0.0575087C8.49003 0.0575087 8.53124 0.0412689 8.54683 0.0946289C8.53681 0.190909 8.44326 0.202509 8.38647 0.239629C7.3653 0.864869 6.43099 1.61191 5.6459 2.53759C4.35078 4.06415 3.45211 5.81691 3.14809 7.85503C2.61134 11.4522 3.69042 14.5065 6.13143 17.055C6.56462 17.512 6.62141 17.867 6.2762 18.4795C5.8586 19.2161 5.22273 19.716 4.54678 20.1731C4.47439 20.216 4.40201 20.2694 4.32962 20.3181C4.22161 20.4144 4.28842 20.4631 4.38085 20.506C4.40201 20.5547 4.42762 20.5976 4.4588 20.6406C5.05235 21.1892 5.61472 21.775 6.19824 22.3342C6.47219 22.5975 6.74502 22.8724 7.00895 23.1462C7.11696 23.2482 7.29848 23.2807 7.32409 23.4744Z" fill="#0180C7"/>
    <path d="M7.3241 23.4746C7.29849 23.2866 7.11809 23.2542 7.00896 23.1416C6.74615 22.8621 6.4722 22.593 6.19825 22.3296C5.61473 21.7705 5.05236 21.1847 4.45881 20.636C4.42763 20.5931 4.40202 20.5502 4.38086 20.5015C5.69713 20.7706 6.98223 20.5873 8.24728 20.1848C8.67601 20.0502 9.10364 19.9157 9.53794 19.8032C9.83193 19.722 10.1415 19.7382 10.4255 19.8461C13.6983 21.0177 16.9289 20.911 20.1082 19.4586C21.4033 18.8624 22.586 18.0226 23.5871 16.9751C23.6383 16.9217 23.6751 16.8405 23.7675 16.8347C23.8143 16.9101 23.7887 16.9902 23.7887 17.0714V20.2173C23.7987 22.013 22.4156 23.4757 20.6918 23.492H20.6661C18.8075 23.5024 16.9501 23.492 15.0915 23.492H7.63369C7.53012 23.4792 7.42767 23.4746 7.3241 23.4746Z" fill="#0172B1"/>
    <path d="M8.12918 11.4409C8.9087 11.4409 9.64145 11.4351 10.3697 11.4409C10.7773 11.4467 10.9989 11.6241 11.0412 11.9629C11.088 12.3874 10.8508 12.6728 10.4065 12.6774C9.57018 12.6879 8.73943 12.6832 7.90312 12.6832C7.66036 12.6832 7.42316 12.6937 7.18039 12.6774C6.88084 12.6612 6.58685 12.5962 6.44208 12.2737C6.29731 11.9513 6.40087 11.6613 6.59687 11.3968C7.39198 10.3435 8.19154 9.28326 8.99222 8.22998C9.03899 8.16502 9.08465 8.10122 9.13142 8.04206C9.0802 7.95042 9.00781 7.99334 8.94545 7.9887C8.38754 7.9829 7.82517 7.9887 7.26837 7.9829C7.13919 7.9829 7.01001 7.96666 6.8864 7.93998C6.59241 7.87038 6.41201 7.56414 6.47883 7.26254C6.5256 7.05838 6.68039 6.89134 6.87638 6.84262C6.99999 6.81014 7.12917 6.7939 7.25835 6.7939C8.17707 6.7881 9.10135 6.7881 10.0201 6.7939C10.1849 6.7881 10.3452 6.81014 10.5056 6.85306C10.8564 6.97718 11.0067 7.3159 10.8664 7.67086C10.7428 7.9771 10.5468 8.24042 10.3497 8.50374C9.67375 9.40158 8.99779 10.2936 8.32072 11.181C8.26281 11.2529 8.21159 11.3225 8.12918 11.4409Z" fill="#0180C7"/>
    <path d="M14.1169 8.61263C14.2405 8.44559 14.3697 8.29015 14.5813 8.24723C14.9889 8.16139 15.3708 8.43514 15.3764 8.8655C15.392 9.94082 15.3864 11.0161 15.3764 12.0915C15.3764 12.371 15.2004 12.6181 14.9477 12.6993C14.6893 12.8014 14.3953 12.7213 14.2249 12.4893C14.137 12.3768 14.1013 12.3548 13.9777 12.4569C13.5078 12.8547 12.9766 12.9243 12.4031 12.7306C11.4844 12.4186 11.108 11.6715 11.0044 10.7633C10.8964 9.77959 11.2104 8.9409 12.0579 8.4247C12.7594 7.9897 13.471 8.02683 14.1169 8.61263ZM12.2895 10.5753C12.2995 10.812 12.3719 11.0382 12.5066 11.2261C12.785 11.6135 13.3173 11.6936 13.6937 11.4036C13.7561 11.3549 13.8129 11.2957 13.8641 11.2261C14.1537 10.8178 14.1537 10.145 13.8641 9.73666C13.7194 9.5267 13.4922 9.40374 13.2494 9.39794C12.6815 9.36082 12.2839 9.81786 12.2895 10.5753ZM17.6938 10.6078C17.6526 9.22627 18.5245 8.19386 19.764 8.15558C21.0802 8.11266 22.0402 9.03255 22.0814 10.3758C22.1226 11.7365 21.323 12.6981 20.0891 12.8281C18.7417 12.9684 17.6726 11.9523 17.6938 10.6078ZM18.9889 10.4791C18.9789 10.7482 19.0557 11.0115 19.2105 11.2319C19.4945 11.6193 20.0257 11.6947 20.3976 11.3931C20.4544 11.3502 20.5012 11.2969 20.5468 11.2423C20.8464 10.834 20.8464 10.145 20.5524 9.73666C20.4076 9.5325 20.1805 9.40374 19.9377 9.39794C19.382 9.36546 18.9889 9.80627 18.9889 10.4791ZM17.2394 9.53831C17.2394 10.3712 17.245 11.2052 17.2394 12.0381C17.245 12.4197 16.9555 12.7376 16.5891 12.748C16.5267 12.748 16.4599 12.7422 16.3976 12.726C16.1392 12.6564 15.9432 12.371 15.9432 12.0323V7.7577C15.9432 7.50482 15.9376 7.25774 15.9432 7.00486C15.9488 6.59074 16.2016 6.32163 16.5835 6.32163C16.9755 6.31583 17.2394 6.58494 17.2394 7.0153C17.245 7.85514 17.2394 8.69963 17.2394 9.53831Z" fill="#0180C7"/>
    <path d="M12.2896 10.5754C12.284 9.81681 12.6816 9.35977 13.244 9.39225C13.4867 9.40269 13.7139 9.52681 13.8587 9.73677C14.1482 10.1404 14.1482 10.8179 13.8587 11.2262C13.5803 11.6136 13.048 11.6937 12.6716 11.4037C12.6092 11.355 12.5524 11.2958 12.5012 11.2262C12.372 11.0383 12.2996 10.8121 12.2896 10.5754ZM18.989 10.4792C18.989 9.81217 19.381 9.36673 19.9389 9.39805C20.1817 9.40385 20.4089 9.53261 20.5536 9.73677C20.8476 10.1451 20.8476 10.8388 20.5481 11.2424C20.2585 11.6241 19.7218 11.689 19.3554 11.3874C19.2986 11.3445 19.2518 11.2912 19.2106 11.232C19.057 11.0116 18.9846 10.7483 18.989 10.4792Z" fill="#FDFEFE"/>
  </g>
  <defs>
    <clipPath id="clip0_847_1095">
      <rect width="24" height="24" fill="white"/>
    </clipPath>
  </defs>
</svg>